<?xml version="1.0" standalone="no"?>
<!DOCTYPE svg PUBLIC "-//W3C//DTD SVG 1.1//EN" "http://www.w3.org/Graphics/SVG/1.1/DTD/svg11.dtd"><svg xmlns="http://www.w3.org/2000/svg" style="background-color:#FFF" width="100" height="125"><path stroke="black" fill="none" stroke-width="1" d="M44.5, 28.7L43.62, 28.44L43.15, 28.05L42.98, 27.43L43, 26.5L43.41, 24.81L43.86, 24.12L44.5, 23.5L44.62, 23.2L44.6, 22.9L44.44, 21.36L44.5, 20.61L44.8, 19.9L45.64, 18.58L46.1, 17.1L46.28, 16.57L46.61, 16.14L47.5, 15.4L47.7, 15.19L47.6, 14.9L47.34, 14.3L47.29, 13.61L47.45, 12.95L47.8, 12.4L48.43, 11.76L48.87, 11.54L49.5, 11.5L49.03, 11.25L48.77, 10.95L48.8, 10.1L49.47, 8.9L50.6, 8.3L50.85, 8.1L50.8, 7.9L50.96, 7.25L51.21, 6.88L51.63, 6.69L52.3, 6.6L53.2, 6.6L53.15, 6.05L53.34, 5.55L53.7, 4.5L53.99, 4.23L54.5, 4.1L55.68, 4.14L56.54, 4.56L57.07, 5.38L57.3, 6.6L57.69, 6.13L57.7, 5.5L57.58, 4.75L57.65, 4.03L58.2, 2.7L58.69, 2.28L59.44, 2.07L60.24, 2.14L60.9, 2.5L61.46, 2.9L62.1, 3L63.16, 3.3L64, 4.2L64.87, 5.91L65.6, 7.7L65.82, 8.07L66.2, 8.3L66.93, 8.64L67.48, 9.16L68, 10.4L68.21, 11.7L68.55, 12.23L69.1, 12.7L69.43, 13.27L69.3, 14L69, 14.8L68.64, 15.6L68.69, 16.36L69.01, 17.06L69.5, 17.7L69.9, 18.39L70.07, 19.1L69.9, 20.5L69.81, 21.44L70.1, 22.3L70.36, 22.7L70.4, 23.1L70.29, 24.5L70.27, 25.21L70.1, 25.9L70.09, 26.24L70.3, 26.5L70.83, 27.28L71.05, 28.13L70.98, 29L70.6, 29.9L70.43, 30.49L70.7, 31L71.38, 32L71.46, 32.6L71.3, 33.3L71, 34.4L70.92, 34.69L70.73, 34.84L70.3, 34.9L70, 34.58L70, 34.1L70.1, 33.5L70.04, 32.31L69.5, 31.5L68.58, 31.14L67.4, 31.3L66.43, 31.89L65.93, 32.7L65.91, 33.66L66.4, 34.7L67, 35L67.94, 34.92L68.84, 35.08L70.6, 35.9L71.55, 36.61L71.84, 37.07L71.9, 37.7L71.9, 38L71.43, 38.59L71.11, 39.26L70.4, 40.6L71.01, 40.95L71.38, 41.38L71.63, 42.4L71.61, 43.5L71.8, 44.5L72.39, 43.87L72.9, 43.1L73.1, 42.65L73.6, 42.5L74.15, 42.76L74.4, 43.4L74.4, 45.5L74.59, 47.85L75, 50.2L75.3, 53L75.41, 55.69L75.6, 58.3L75.59, 58.89L75.5, 59.4L75.29, 61.85L75, 64.3L74.3, 67.49L73.37, 70.59L72.19, 73.6L70.7, 76.5L67.9, 81.2L65.6, 84.3L60.7, 89.9L58.47, 92.23L56.1, 94.4L54.39, 95.85L52.6, 97.3L51.74, 97.79L50.8, 98.2L50.5, 98.24L50.5, 97.9L50.84, 96.9L51.7, 96.2L53.13, 95.17L54.4, 94L56.48, 92.27L58.4, 90.4L61.3, 87.1L65.3, 82.5L66.88, 80.19L68.3, 77.8L70.36, 74.13L71.9, 70.3L73.16, 66.23L73.63, 64.14L73.9, 62L74.13, 59.05L74.2, 56.1L73.9, 51.86L73.3, 47.7L73.2, 45.7L73.17, 45.42L73, 45.3L72.7, 45.5L70.02, 48.22L67.5, 51.1L66.8, 51.69L66.1, 52.2L63.25, 55.4L60.7, 58.9L59.32, 60.86L58.1, 62.9L55.65, 68.16L53.5, 73.5L52.33, 77.16L51.3, 80.9L50.1, 87.4L49.9, 90.7L49.84, 91.3L49.7, 91.9L49.6, 92.3L49.92, 93.05L49.95, 93.8L49.7, 95.3L49.8, 97.3L49.8, 97.9L49.55, 98.11L49.3, 98.1L48.99, 97.72L48.58, 97.54L47.7, 97.2L46.61, 95.89L45.6, 94.5L41, 88.6L35.6, 81.2L32.9, 76.5L31.76, 74.44L30.81, 72.33L29.1, 68L28.03, 65.64L27.1, 63.2L26.24, 60.35L25.6, 57.5L25.34, 55.4L25.3, 53.3L25.25, 52.19L25.2, 51L25.46, 47.55L25.8, 44.1L27.2, 36.5L28.05, 31.86L29.2, 27.3L29.79, 24.7L30.3, 22.1L30.29, 21.71L30.2, 21.4L30.33, 20.66L30.9, 20.3L31.64, 20.44L31.9, 20.68L32, 21.1L32.15, 23.32L32.64, 25.48L34.1, 29.7L34.98, 32.24L36, 34.7L37.75, 38.79L39.8, 42.8L40.65, 41.57L41.8, 40.5L41.94, 40.25L41.95, 39.85L41.8, 38.9L41.6, 38.4L41.23, 37.4L41.29, 36.51L41.7, 35.71L42.4, 35L42.8, 34.56L42.96, 34.14L42.7, 33.2L42.31, 32.02L42.33, 31.09L42.76, 30.29L43.6, 29.5L43.81, 29.25L44.09, 29.14L44.35, 29.01L44.5, 28.7L44.9, 28.81L45.3, 28.7L46.03, 28.43L46.75, 28.38L48.2, 28.8L48.55, 28.86L48.79, 28.7L49.3, 28.3L49.46, 28.07L49.4, 27.7L48.6, 25.4L48.29, 24.58L48.02, 24.3L47.6, 24.2L46.23, 24.16L45.58, 24.33L45, 24.8L44.53, 25.57L44.22, 26.39L44.18, 27.26L44.5, 28.2L44.5, 28.7"/><path stroke="black" fill="none" stroke-width="1" d="M49, 33.2L49.34, 32.68L49.32, 32.17L49.2, 31.71L49.2, 31.3L49.41, 30.04L49.75, 29.6L50.3, 29.3L51.95, 29.01L53.6, 29.4L54.09, 29.75L54.2, 30.4L53.9, 31.35L53.39, 32.16L52.2, 33.7L51.8, 33.8L51.23, 33.62L50.6, 33.59L49.97, 33.53L49.4, 33.3L49.21, 33.7L48.88, 33.93L48.2, 34.4L48.05, 34.38L47.9, 34.2L47.31, 33.68L46.5, 33.6L45.5, 33.5L44.5, 33.4L44.1, 33.1L43.64, 32.11L43.72, 31.16L44.3, 30.39L45.3, 29.9L46.1, 29.5L46.65, 29.36L47, 29.41L47.2, 29.71L47.3, 30.3L47.31, 31.2L47.1, 32.1L47, 32.49L47.09, 32.78L47.6, 33L48.34, 33.03L49, 33.2"/><path stroke="black" fill="none" stroke-width="1" d="M51.2, 45.2L50.3, 44.93L49.42, 44.86L47.8, 45.2L45.9, 46.3L45.71, 46.65L45.6, 47L44.72, 45.89L43.81, 45.39L42.77, 45.47L41.5, 46.1L41.25, 45.56L41.3, 45.33L41.6, 45.1L41.78, 44.87L41.79, 44.65L41.6, 44.2L41.34, 43.44L41.31, 42.8L41.53, 42.23L42, 41.7L42.63, 41.27L43.31, 41.05L44.01, 41.05L44.7, 41.3L45.17, 41.73L45.46, 42.46L45.47, 43.37L45.1, 44.3L44.85, 44.78L44.93, 44.95L45.2, 45.1L45.81, 45.32L46.03, 45.21L46.2, 44.8L46.5, 44L46.86, 44.31L47.3, 44.7L47.82, 44.76L47.9, 44.3L47.7, 43.7L47.45, 43.01L47.39, 42.3L47.6, 40.9L47.92, 40.42L48.6, 40.06L49.43, 39.87L50.2, 39.9L50.88, 40.13L51.27, 40.53L51.41, 41.11L51.3, 41.9L51.1, 43.55L51.2, 45.2L51.72, 45.08L51.99, 44.76L52.1, 43.8L52.22, 42.35L52.2, 40.9L52.25, 39.54L52.48, 38.95L52.9, 38.4L53.14, 37.7L53.28, 37.33L53.6, 37L53.85, 38.81L53.71, 39.63L53.2, 40.4L53.03, 40.81L53, 41.3L53.03, 43.19L53.2, 45L53.22, 45.3L53.1, 45.6L52.75, 46.02L52.56, 46.52L52.4, 47.6L52.3, 49L52.5, 50.4L52.47, 50.83L52.2, 51.14L51.6, 51.8L51.05, 50.87L50.32, 50.38L48.6, 50L48.4, 50L47.58, 50.05L47.19, 50.03L46.9, 49.8L46.45, 48.5L46.6, 47.2L46.93, 46.73L47.41, 46.36L48.6, 45.9L49.5, 45.7L49.98, 45.73L50.36, 45.95L50.61, 46.32L50.7, 46.8L50.72, 48.15L50.6, 49.5L50.63, 49.88L50.82, 50.16L51.5, 50.6L51.86, 48.21L51.7, 45.9L51.2, 45.2"/><path stroke="black" fill="none" stroke-width="1" d="M48.7, 95.9L48.7, 92.13L48.7, 88.5L49.21, 84.11L50.1, 79.8L50.88, 77.01L51.8, 74.3L52.22, 73.15L52.5, 72L52.29, 69.76L51.7, 67.6L50.8, 65.1L50.15, 63.2L49.3, 61.41L47.2, 58.1L44, 53.8L42.28, 50.91L40.7, 47.8L37.7, 42L36.22, 38.95L34.9, 35.9L33.5, 32.3L31.5, 26.8L31.39, 26.47L31.2, 26.3L31.03, 26.47L31, 26.8L30.34, 29.01L29.9, 31.3L28.8, 36.9L27.99, 40.86L27.4, 44.9L27.05, 49.25L27, 53.6L27.19, 55.52L27.55, 57.39L28.4, 61.1L29.09, 63.29L30, 65.4L32.9, 72.3L34.01, 74.44L35.2, 76.5L36.79, 79.39L38.6, 82.2L40.4, 84.4L43.2, 88.4L46.7, 92.9L47.47, 94.48L48.7, 95.9"/><path stroke="black" fill="none" stroke-width="1" d="M46.5, 41.4L46.66, 40.53L46.85, 39.95L47.12, 39.6L47.5, 39.4L48.01, 39.21L48.23, 39.04L48.18, 38.77L47.9, 38.3L47.3, 37.9L46.64, 37.5L46.5, 36.8L46.4, 35.9L46.3, 35L46, 34.6L45.18, 34.42L44.5, 34.48L43.89, 34.8L43.3, 35.4L42.8, 36L42.43, 36.68L42.5, 37.5L42.86, 38.5L43, 39.5L43.13, 39.76L43.4, 39.8L45.1, 40.23L45.87, 40.62L46.5, 41.4"/><path stroke="black" fill="none" stroke-width="1" d="M68, 20.6L66.64, 20.9L65.55, 21.74L64.91, 23L64.81, 23.77L64.9, 24.6L63.8, 24L62.75, 23.57L61.89, 23.51L61.09, 23.85L60.2, 24.6L59.9, 24.7L59.78, 24.59L59.8, 24.4L59.67, 23.56L59.4, 22.8L59.31, 22.42L59.41, 22.13L59.8, 21.6L60.34, 22.21L60.8, 22.9L61.26, 23.28L61.8, 23.2L61.89, 22.76L61.6, 22.4L61.25, 21.41L61.45, 20.48L62.02, 19.73L62.8, 19.3L63.2, 19.2L63.6, 19.4L63.81, 19.86L63.8, 20.4L63.47, 21.29L63, 22.1L62.9, 22.5L63.1, 22.9L63.58, 23.04L63.9, 22.8L64.56, 22.07L65, 21.2L65.22, 20.9L65.6, 20.9L66.16, 20.73L66.2, 20.1L65.8, 19.1L65.74, 18.62L65.86, 18.22L66.15, 17.95L66.6, 17.8L67.35, 17.86L67.9, 18.26L68.15, 18.91L68, 19.7L67.89, 20.19L68, 20.6"/><path stroke="black" fill="none" stroke-width="1" d="M64.7, 32.6L65.12, 33.87L65.46, 34.46L66, 35L66.01, 35.34L65.8, 35.6L64.9, 36.8L64.67, 36.12L64.31, 35.59L63.3, 34.95L62.14, 34.83L61.1, 35.2L60.63, 35.4L60.25, 35.41L59.95, 35.21L59.7, 34.8L59.4, 34.3L59.19, 33.51L59.5, 32.8L59.83, 32.75L60, 33L60.2, 33.9L60.45, 34.39L61, 34.5L61.26, 34.36L61.34, 34.13L61.3, 33.6L60.9, 32.4L60.76, 31.41L61, 30.5L61.3, 30.1L61.9, 30L62.9, 30.2L63.43, 30.52L63.55, 30.82L63.5, 31.3L63.19, 32.64L62.8, 33.9L62.86, 34.41L63.3, 34.7L63.8, 34.71L63.95, 34.55L64, 34.2L64.16, 33.36L64.7, 32.6"/><path stroke="black" fill="none" stroke-width="1" d="M52.9, 53.9L52.86, 53.09L53.02, 52.45L53.35, 51.98L53.81, 51.66L55, 51.5L56.3, 51.9L56.73, 52.28L56.99, 52.81L57.07, 53.52L57, 54.4L56.9, 55L56.65, 55.66L56.4, 56.02L56, 56.12L55.3, 56L54.4, 56L53.58, 56.08L53.13, 55.94L52.94, 55.48L52.9, 54.6L52.9, 53.9"/><path stroke="black" fill="none" stroke-width="1" d="M52.2, 59L52.54, 57.97L53.4, 57.4L54.06, 57.19L54.8, 57.2L55.73, 57.53L56.29, 58L56.53, 58.69L56.5, 59.7L56.5, 60.4L56.35, 60.99L56.15, 61.31L55.8, 61.43L55.2, 61.4L53.3, 61.6L52.79, 61.49L52.5, 61L52.2, 59"/><path stroke="black" fill="none" stroke-width="1" d="M70, 37.1L69.7, 38.4L69.21, 39.18L69.15, 39.61L69.4, 40.1L69.4, 40.54L69.2, 40.68L68.8, 40.6L67.89, 40.25L66.9, 40.2L66.62, 40.11L66.5, 39.8L66, 38.2L65.92, 37.52L66.09, 36.86L66.46, 36.3L67, 35.9L67.77, 35.65L68.55, 35.65L69.25, 35.87L69.8, 36.3L69.98, 36.66L70, 37.1"/><path stroke="black" fill="none" stroke-width="1" d="M50.5, 34.4L51.76, 34.57L52.44, 35.17L52.57, 36.12L52.2, 37.3L51.8, 38L51.65, 38.62L51.41, 39.07L50.97, 39.27L50.2, 39.1L49.14, 38.44L48.78, 37.88L48.6, 37.1L48.59, 36.21L48.8, 35.4L49.08, 34.85L49.46, 34.53L50.5, 34.4"/><path stroke="black" fill="none" stroke-width="1" d="M55.6, 64.5L55.45, 65.35L55, 66.2L53.9, 68.6L53.74, 68.88L53.5, 69L53.32, 68.84L53.3, 68.6L52.1, 64.9L52.04, 63.91L52.2, 63L52.3, 62.9L52.85, 62.72L53.8, 62.62L54.75, 62.65L55.3, 62.8L55.56, 63.39L55.6, 64.5"/><path stroke="black" fill="none" stroke-width="1" d="M54, 25.4L53.82, 26.7L53.5, 28L53.41, 28.21L53.1, 28.2L51.89, 27.85L50.6, 27.8L50.4, 27.7L50.02, 27.06L49.93, 26.1L50.09, 25.14L50.5, 24.5L51.59, 23.86L52.2, 23.75L52.9, 23.9L53.83, 24.46L54.03, 24.87L54, 25.4"/><path stroke="black" fill="none" stroke-width="1" d="M53.5, 48.8L53.74, 47.41L54.22, 46.41L55.05, 45.8L56.3, 45.6L56.94, 45.78L57.35, 46.15L57.54, 46.67L57.5, 47.3L57.21, 48.1L56.74, 48.79L56.25, 49.45L55.9, 50.2L55.68, 50.33L55.3, 50.3L54.7, 50.1L54.05, 50.05L53.69, 49.86L53.53, 49.47L53.5, 48.8"/><path stroke="black" fill="none" stroke-width="1" d="M55, 37.2L55, 36.7L55.05, 35.6L55.38, 35L56.04, 34.7L57.1, 34.5L57.96, 34.55L58.32, 34.78L58.6, 35.2L58.86, 36.25L58.6, 37.3L58.3, 37.7L57.56, 38.74L57.05, 38.98L56.3, 38.8L55.66, 38.75L55.1, 38.7L54.94, 38.13L55, 37.4L55, 37.2"/><path stroke="black" fill="none" stroke-width="1" d="M64.9, 28L65.1, 29.11L65.6, 30L65.55, 30.62L65.2, 31.1L64.98, 31.19L64.9, 30.9L64.87, 30.13L64.7, 29.66L64.31, 29.37L63.6, 29.1L62.69, 28.78L61.7, 28.6L61.34, 28.48L61.2, 28.2L60.94, 26.84L60.93, 26.13L61.2, 25.4L61.58, 24.94L62.07, 24.63L62.61, 24.5L63.1, 24.6L63.7, 24.98L64.03, 25.41L64.08, 25.94L63.9, 26.6L63.6, 27.4L63.5, 27.8L63.7, 28.2L64.06, 28.35L64.5, 28.2L64.9, 28"/><path stroke="black" fill="none" stroke-width="1" d="M48.2, 50.8L48.86, 50.83L49.6, 51L50.17, 51.31L50.3, 52L50.33, 52.8L50.5, 53.6L50.45, 54.02L50.1, 54.3L49.37, 54.59L48.65, 54.55L47.2, 54.2L46.76, 53.76L46.41, 52.86L46.23, 51.91L46.3, 51.3L46.61, 51.14L47.14, 50.97L48.2, 50.8"/><path stroke="black" fill="none" stroke-width="1" d="M54.2, 42.9L54.35, 42.45L54.36, 41.89L54.47, 41.31L54.9, 40.8L55.94, 40.21L56.46, 40.17L56.9, 40.3L57.48, 40.74L57.85, 41.3L58, 41.93L57.9, 42.6L57.7, 43.2L57.48, 43.77L57.11, 44.13L56.62, 44.3L56, 44.3L55.5, 44.3L54.92, 44.46L54.68, 44.51L54.5, 44.4L54.24, 43.73L54.2, 42.9"/><path stroke="black" fill="none" stroke-width="1" d="M65.2, 43.6L65.15, 42.92L65.38, 42.35L66.3, 41.4L66.89, 41.15L67.63, 41.14L68.33, 41.33L68.8, 41.7L69.05, 42.65L68.7, 43.6L68.43, 44.06L68.3, 44.6L68.26, 45.06L68.2, 45.23L68, 45.3L66.96, 45.63L66.47, 45.69L66, 45.5L65.41, 44.66L65.2, 43.6"/><path stroke="black" fill="none" stroke-width="1" d="M50.4, 22.2L50.32, 22.46L50.5, 22.66L50.68, 22.8L50.6, 22.9L49.81, 23.4L49.38, 23.52L48.8, 23.3L47.72, 23L46.5, 23L45.96, 22.89L45.8, 22.4L46, 20.5L46.25, 20L46.68, 19.6L47.21, 19.35L47.8, 19.3L48.26, 19.49L48.67, 19.88L48.98, 20.37L49.1, 20.9L49.11, 21.6L48.9, 22.3L48.75, 22.64L48.9, 22.9L49.24, 23.01L49.5, 22.9L49.95, 22.59L50.4, 22.2"/><path stroke="black" fill="none" stroke-width="1" d="M59.8, 49.5L59.7, 47.9L59.79, 47.47L60.14, 47.01L60.61, 46.65L61.1, 46.5L61.69, 46.62L62.2, 46.95L62.56, 47.43L62.7, 48L62.38, 49.57L61.6, 51L60.91, 51.4L60, 51.5L59.82, 51.37L59.8, 51.1L59.8, 49.5"/><path stroke="black" fill="none" stroke-width="1" d="M66, 28.5L66.17, 27.85L66.63, 27.29L67.27, 26.85L68, 26.6L68.61, 26.65L69.18, 26.9L69.63, 27.3L69.9, 27.8L69.84, 28.26L69.6, 28.97L69.28, 29.66L69, 30L68.75, 29.99L68.5, 29.9L67.5, 29.9L66.86, 30.05L66.56, 30.1L66.3, 29.9L66, 28.5"/><path stroke="black" fill="none" stroke-width="1" d="M69.4, 25.8L69.15, 24.56L69.2, 23.4L69.16, 22.91L68.92, 22.41L68.58, 22.01L68.2, 21.8L67.35, 21.89L66.56, 22.36L66.02, 23.08L65.9, 23.9L66.4, 25.5L66.57, 25.79L66.9, 25.7L68.11, 25.56L69.4, 25.8"/><path stroke="black" fill="none" stroke-width="1" d="M55.9, 30.5L55.93, 29.61L56.4, 28.8L57.07, 28.44L57.47, 28.39L57.9, 28.6L58.59, 29.58L58.7, 30.12L58.6, 30.7L58.14, 31.99L57.6, 33.2L57.2, 33.42L56.8, 33.5L56.56, 33.55L56.4, 33.3L56.08, 31.9L55.89, 31.22L55.9, 30.5"/><path stroke="black" fill="none" stroke-width="1" d="M58.8, 55.1L58.89, 54.11L59.2, 53.2L59.64, 52.78L60.19, 52.53L61.4, 52.3L61.79, 52.49L61.8, 52.9L61.33, 55.2L60.87, 56.25L60.1, 57.2L59.84, 57.4L59.64, 57.41L59.4, 57.1L58.99, 56.1L58.8, 55.1"/><path stroke="black" fill="none" stroke-width="1" d="M44.4, 49L44.4, 50.2L44.38, 50.58L44.5, 50.8L45.04, 51.06L45.26, 51.49L45.5, 52.4L45.7, 52.9L45.95, 53.39L46.01, 53.62L45.9, 53.8L45.65, 53.82L45.48, 53.64L45.2, 53.1L43.74, 50.68L42.5, 48.1L42.2, 47.5L41.98, 47.03L41.95, 46.64L42.14, 46.3L42.6, 46L43.01, 45.9L43.36, 46L43.9, 46.6L44.34, 47.72L44.4, 49"/><path stroke="black" fill="none" stroke-width="1" d="M60.6, 37.9L60.72, 37.01L60.96, 36.41L61.37, 36.06L62, 35.9L62.48, 35.86L62.88, 36.01L63.15, 36.34L63.3, 36.8L63.27, 37.74L63.05, 38.61L62.2, 40.2L61.65, 40.49L61.1, 40.1L60.7, 39.04L60.6, 37.9"/><path stroke="black" fill="none" stroke-width="1" d="M53.9, 23.2L54.33, 21.94L54.6, 20.6L54.62, 20.05L54.52, 19.87L54.2, 19.8L52.84, 19.76L51.4, 20.1L51.07, 20.34L50.94, 20.61L51, 21.2L51.17, 22.05L51.39, 22.41L51.8, 22.6L52.92, 22.86L53.9, 23.2"/><path stroke="black" fill="none" stroke-width="1" d="M46.8, 55.1L48.21, 55.31L49.4, 55.6L49.9, 56.07L50.1, 56.7L50.23, 57.79L50.54, 58.85L51.2, 61L51.43, 61.49L51.43, 61.72L51.2, 61.9L51.03, 61.92L50.93, 61.75L50.8, 61.3L49, 58.2L47.9, 56.72L46.8, 55.1"/><path stroke="black" fill="none" stroke-width="1" d="M62.8, 42.6L62.5, 44.8L62.09, 45.32L61.54, 45.53L60.97, 45.39L60.5, 44.9L60.09, 43.78L60.04, 43.16L60.2, 42.5L60.6, 41.95L61.25, 41.56L61.97, 41.42L62.6, 41.6L62.78, 42.02L62.8, 42.6"/><path stroke="black" fill="none" stroke-width="1" d="M65.1, 48.4L65.36, 47.61L66, 47.2L67.7, 46.5L68.27, 46.46L68.7, 46.8L68.79, 47.4L68.5, 48L66.6, 50L66.2, 50.26L65.9, 50.24L65.5, 49.8L65.1, 48.4"/><path stroke="black" fill="none" stroke-width="1" d="M58.5, 24.2L58.31, 25.54L57.9, 26.8L57.53, 27.15L57, 27.2L56.59, 27.06L56.4, 26.7L56, 25.6L55.89, 24.59L56.14, 23.81L56.75, 23.28L57.7, 23L58.19, 23.07L58.4, 23.38L58.5, 24.2"/><path stroke="black" fill="none" stroke-width="1" d="M49.8, 11.2L50.14, 10.01L50.49, 9.67L51, 9.5L51.76, 9.16L51.97, 8.81L52, 8.3L52.16, 7.95L52.53, 7.58L52.93, 7.32L53.2, 7.3L53.8, 8.2L53.76, 8.44L53.5, 8.6L52.94, 8.92L52.64, 9.31L52.61, 9.8L52.9, 10.4L52.86, 10.67L52.6, 10.8L52.01, 11.13L51.5, 11.6L51.22, 11.94L51.05, 12.01L50.8, 11.9L50.11, 11.66L49.86, 11.52L49.8, 11.2"/><path stroke="black" fill="none" stroke-width="1" d="M65, 17.1L66, 16.72L66.49, 16.65L67, 16.8L67.21, 16.96L67.5, 16.9L67.56, 16.6L67.4, 16.3L67.13, 15.61L67.3, 15L67.66, 14.3L67.8, 13.6L67.76, 13.06L67.2, 12.9L66.45, 13.09L65.89, 13.57L65.61, 14.25L65.7, 15L65.76, 15.51L65.6, 15.8L65.15, 15.97L65.04, 16.3L65, 17.1"/><path stroke="black" fill="none" stroke-width="1" d="M52.3, 15.1L51.8, 15.3L51.14, 15.68L50.51, 15.7L49.3, 15.2L48.74, 14.49L48.7, 13.7L49.06, 13.11L49.44, 12.81L49.87, 12.76L50.4, 12.9L51.03, 13.3L51.5, 13.85L52.3, 15.1"/><path stroke="black" fill="none" stroke-width="1" d="M56.5, 20.3L56.62, 19.73L56.93, 19.15L57.34, 18.64L57.8, 18.3L58.47, 18.31L59, 18.7L59.34, 19.21L59.3, 19.8L58.5, 21.3L58.14, 21.54L57.61, 21.66L57.11, 21.65L56.8, 21.5L56.57, 20.94L56.5, 20.3"/><path stroke="black" fill="none" stroke-width="1" d="M48.9, 16.2L49.72, 16.53L50, 16.88L50.1, 17.3L50.14, 17.82L50.3, 18.19L50.61, 18.38L51.1, 18.4L51.33, 18.42L51.4, 18.6L51.29, 18.77L51.1, 18.8L50.58, 18.86L50.2, 19.3L50.04, 19.45L49.8, 19.3L49.42, 18.79L48.91, 18.54L47.8, 18.3L47.4, 18.13L47.3, 17.8L47.45, 17.25L47.84, 16.74L48.35, 16.35L48.9, 16.2"/><path stroke="black" fill="none" stroke-width="1" d="M55.3, 9L55.68, 9.12L56, 9.41L56.17, 9.8L56.1, 10.2L55.88, 10.73L55.92, 11.15L56.5, 11.8L56.8, 12.1L56.8, 12.4L56.25, 12.66L55.7, 12.7L54.61, 11.8L53.9, 10.6L53.92, 10.05L54.23, 9.54L54.72, 9.15L55.3, 9"/><path stroke="black" fill="none" stroke-width="1" d="M64.6, 18.7L64.47, 18.29L64.2, 18.1L63.59, 17.85L63.34, 17.64L63.37, 17.33L63.6, 16.8L63.8, 16.2L63.83, 15.49L63.4, 15L62.53, 14.86L62.13, 14.99L61.8, 15.4L61.56, 16.07L61.56, 16.75L62, 18.1L62.2, 18.31L62.4, 18.3L62.93, 18.14L63.46, 18.2L64.6, 18.7"/><path stroke="black" fill="none" stroke-width="1" d="M59.2, 14.3L58.78, 15.61L58.5, 17L58.31, 17.1L57.89, 17.09L57.45, 16.99L57.2, 16.8L56.89, 15.85L56.8, 14.9L56.95, 14.29L57.36, 13.84L57.94, 13.59L58.6, 13.6L59.05, 13.8L59.2, 14.3"/><path stroke="black" fill="none" stroke-width="1" d="M64.1, 48L64.38, 48.59L64.5, 49.4L64.64, 50.02L65, 50.5L65.35, 50.84L65.4, 51.15L64.9, 51.8L64.11, 52.38L63.4, 53.1L63.33, 53.22L63.1, 53.2L63.1, 52.8L63.1, 52.23L62.8, 51.8L62.65, 51.55L62.8, 51.3L63.28, 50.53L63.6, 49.72L64.1, 48"/><path stroke="black" fill="none" stroke-width="1" d="M64.9, 13.2L65.26, 12.62L65.7, 12.2L66.12, 11.98L66.38, 11.66L66.6, 10.9L66.61, 10.22L66.1, 9.7L65.48, 9.45L65.23, 9.53L65, 9.8L64.75, 9.94L64.5, 9.7L64.07, 9.65L63.8, 9.9L63.79, 10.14L64, 10.3L64.4, 10.97L64.5, 11.8L64.59, 12.5L64.9, 13.2"/><path stroke="black" fill="none" stroke-width="1" d="M53.7, 18.4L53.11, 18.44L52.66, 18.2L52, 17.4L51.87, 16.91L52.2, 16.5L52.8, 16.25L53.4, 16.2L54.6, 16.5L54.81, 16.7L54.79, 16.96L54.6, 17.5L54.49, 18.29L54.19, 18.47L53.7, 18.4"/><path stroke="black" fill="none" stroke-width="1" d="M53.8, 15.3L54.13, 15.26L54.19, 15.06L54.2, 14.6L54.59, 13.99L54.7, 13.56L54.51, 13.15L54, 12.6L53.7, 12.3L53.44, 12.09L53.1, 12.1L52.69, 12.38L52.5, 12.8L52.53, 13.25L52.7, 13.7L53.1, 14.11L53.23, 14.33L53.2, 14.6L53.13, 15.05L53.28, 15.25L53.8, 15.3"/><path stroke="black" fill="none" stroke-width="1" d="M65.8, 40.4L65.08, 40.91L64.87, 41.29L64.8, 41.8L64.73, 41.99L64.5, 42.1L64.27, 42.02L64.2, 41.8L64.06, 41.28L63.7, 40.9L63.54, 40.55L63.6, 40.2L64.09, 39.11L64.5, 38.1L64.7, 37.8L64.9, 38.1L65.09, 39.33L65.31, 39.9L65.8, 40.4"/><path stroke="black" fill="none" stroke-width="1" d="M56.5, 7.7L56.8, 7.59L57.1, 7.7L57.2, 8.6L56.95, 8.75L56.7, 8.6L56.02, 8.14L55.2, 7.9L54.76, 7.68L54.49, 7.35L54.3, 6.5L54.56, 5.82L55.2, 5.3L55.5, 5.29L55.8, 5.5L56.01, 5.86L56, 6.3L55.8, 6.81L55.9, 7.4L56.16, 7.66L56.5, 7.7"/><path stroke="black" fill="none" stroke-width="1" d="M57.9, 56.1L58.51, 57.07L58.93, 57.42L59.5, 57.6L59.66, 57.76L59.6, 58L58.4, 60L58.23, 60.26L57.9, 60.3L57.83, 60.09L57.9, 59.8L57.9, 58.81L57.6, 57.9L57.42, 57.41L57.45, 56.96L57.9, 56.1"/><path stroke="black" fill="none" stroke-width="1" d="M64.6, 14.4L64.5, 14.1L64.4, 14L63.71, 13.75L63.38, 13.31L63.3, 12.75L63.4, 12.1L63.4, 11.66L63.1, 11.3L62.71, 11.24L62.4, 11.4L61.91, 11.93L61.8, 12.6L62.16, 13.48L62.9, 13.9L63.75, 14.04L64.6, 14.4"/><path stroke="black" fill="none" stroke-width="1" d="M54.6, 32.1L54.91, 32.49L55.09, 32.96L55.32, 33.38L55.8, 33.6L54.57, 34.22L54.08, 34.64L53.8, 35.3L53.31, 34.74L53.23, 34.23L53.63, 33.44L54.04, 32.86L54.6, 32.1"/><path stroke="black" fill="none" stroke-width="1" d="M59.5, 51.6L58.3, 52L58.07, 52.01L58, 51.8L57.82, 51.5L57.53, 51.29L57.27, 51.05L57.2, 50.7L57.47, 50.1L57.9, 49.5L58.4, 48.6L58.54, 50.29L58.78, 51.03L59.5, 51.6"/><path stroke="black" fill="none" stroke-width="1" d="M65.4, 46.1L64.6, 46.6L64.27, 46.92L64.1, 47.4L63.74, 46.81L63.3, 46.3L63.15, 46.01L63.3, 45.8L64.2, 43.6L64.26, 44.36L64.54, 45L65.4, 46.1"/><path stroke="black" fill="none" stroke-width="1" d="M58.9, 9.5L59.26, 9.5L59.45, 9.61L59.4, 10.1L58.8, 11.8L58.63, 12.13L58.44, 12.24L58, 12L57.76, 11.1L57.9, 10.2L58.32, 9.66L58.9, 9.5"/><path stroke="black" fill="none" stroke-width="1" d="M59.1, 41.5L59.38, 41.05L59.73, 40.8L60.5, 40.4L59.95, 39.96L59.7, 39.3L59.43, 38.86L59.25, 38.86L59, 39.1L58.62, 39.41L58.1, 39.5L58.6, 40.39L59.1, 41.5"/><path stroke="black" fill="none" stroke-width="1" d="M59.8, 29.7L60.05, 28.89L60.03, 28.11L59.8, 26.6L59.65, 26.45L59.5, 26.6L59.14, 27.51L59.09, 27.99L59.3, 28.5L59.8, 29.7"/><path stroke="black" fill="none" stroke-width="1" d="M60.2, 3.9L59.88, 4.61L59.69, 4.98L59.7, 5.4L59.51, 5.46L59.1, 5.3L58.91, 4.82L58.93, 4.23L59.13, 3.67L59.5, 3.3L60, 3.3L60.18, 3.6L60.2, 3.9"/><path stroke="black" fill="none" stroke-width="1" d="M63.3, 9.8L62.78, 9.8L62.5, 9.58L62.3, 8.9L62.38, 8.19L62.9, 7.7L63.31, 7.71L63.5, 8.1L63.37, 8.64L63.1, 9.1L62.94, 9.49L63.3, 9.8"/><path stroke="black" fill="none" stroke-width="1" d="M60.6, 15L61.08, 14.27L61.7, 13.7L60.95, 13.11L60.5, 12.3L60.23, 12.63L60.15, 12.96L60.32, 13.61L60.61, 14.28L60.6, 15"/><path stroke="black" fill="none" stroke-width="1" d="M60.1, 16.1L60.33, 16.76L60.4, 17.5L60.7, 18.3L60.94, 18.58L60.95, 18.84L60.6, 19.3L59.82, 17.77L59.73, 16.97L60.1, 16.1"/><path stroke="black" fill="none" stroke-width="1" d="M58.9, 44.1L59.7, 45.7L59.67, 45.93L59.5, 46L59.1, 46.11L58.91, 46.15L58.7, 46L58.42, 45.59L58.35, 45.2L58.5, 44.73L58.9, 44.1"/><path stroke="black" fill="none" stroke-width="1" d="M59.1, 8.2L58.69, 8.19L58.55, 8.07L58.5, 7.8L58.75, 7.11L59.3, 6.8L59.7, 6.95L59.8, 7.4L59.64, 8.02L59.45, 8.22L59.1, 8.2"/><path stroke="black" fill="none" stroke-width="1" d="M61.5, 5L61.44, 5.45L61.62, 6.01L61.7, 6.59L61.3, 7.1L60.85, 6.42L60.95, 5.86L61.27, 5.4L61.5, 5"/><path stroke="black" fill="none" stroke-width="1" d="M51.9, 56.4L51.88, 56.74L51.7, 57L51.53, 56.79L51.26, 56.33L51.01, 55.82L50.9, 55.5L51.15, 55.2L51.4, 55.2L51.72, 55.39L51.76, 55.72L51.75, 56.1L51.9, 56.4"/><path stroke="black" fill="none" stroke-width="1" d="M60.9, 9L61.5, 9.38L61.8, 9.9L61.52, 10.3L61.1, 10.4L60.85, 10.19L60.79, 9.89L60.7, 9.3L60.72, 9.11L60.9, 9"/><path stroke="black" fill="none" stroke-width="1" d="M56, 27.5L55, 28.2L54.8, 28.2L54.75, 27.51L55, 26.9L55.21, 26.9L55.42, 27.09L56, 27.5"/><path stroke="black" fill="none" stroke-width="1" d="M70.2, 43.4L70.27, 43.94L70.13, 44.39L69.9, 45.3L69.51, 45.05L69.41, 44.76L69.63, 44.27L70.2, 43.4"/><path stroke="black" fill="none" stroke-width="1" d="M63.6, 6.6L63.49, 5.89L63.33, 5.6L63, 5.4L62.69, 5.45L62.6, 5.8L62.7, 6.18L62.95, 6.35L63.6, 6.6"/><path stroke="black" fill="none" stroke-width="1" d="M70.8, 54.9L70.2, 60L69.8, 63.4L68.6, 67.6L67.56, 70.72L66.3, 73.7L63.54, 78.92L61.93, 81.38L60.1, 83.7L58.2, 86.1L57.87, 86.44L57.5, 86.56L57.13, 86.48L56.8, 86.2L56.61, 85.84L56.8, 85.4L57.69, 84.25L57.88, 83.57L57.9, 82.8L58.18, 82.31L58.6, 81.9L60.54, 79.09L62.4, 76.2L64.7, 73.1L65.7, 71.32L66.4, 69.4L67.72, 65.49L68.6, 61.5L69.13, 58.34L69.5, 55.1L69.65, 53.85L69.5, 52.6L69.52, 52.36L69.7, 52.2L69.94, 52.19L70.1, 52.4L70.68, 53.73L70.8, 54.9"/><path stroke="black" fill="none" stroke-width="1" d="M57.1, 78L56.75, 78.01L56.4, 77.8L56.4, 77.21L56.7, 76.7L58.2, 74.7L58.36, 74.41L58.3, 74.2L57.91, 73.9L57.93, 73.63L58.3, 73.2L60.04, 71.06L61.4, 68.7L62.6, 66.19L63.8, 63.6L65.3, 60.2L65.6, 59.3L65.73, 58.89L66, 58.7L66.35, 58.79L66.7, 59.1L66.86, 59.41L66.8, 59.8L64.29, 65.88L61.4, 71.8L60.28, 73.82L59, 75.7L57.7, 77.8L57.1, 78"/><path stroke="black" fill="none" stroke-width="1" d="M62.3, 61.2L61.79, 63.02L60.9, 64.7L58.3, 68.8L57.47, 69.57L56.5, 70.2L56.3, 70.2L56.3, 69.8L56.55, 69.04L56.95, 68.39L57.9, 67.2L59.66, 64.25L60.9, 61L61.08, 60.37L61.29, 60.21L61.7, 60.2L62.23, 60.59L62.3, 61.2"/><path stroke="black" fill="none" stroke-width="1" d="M29.7, 47.9L29.56, 44.73L29.5, 41.7L29.81, 38.66L30.5, 35.7L30.64, 35.25L31, 35.1L31.27, 35.22L31.37, 35.42L31.3, 35.9L30.86, 40.01L30.8, 44.2L31.14, 49.59L31.46, 52.26L32, 54.9L33.11, 59.01L34.6, 62.9L36.9, 67L39.92, 71.62L43.1, 76.1L43.82, 77.24L44.7, 78.3L45.06, 78.76L45.08, 79.05L44.9, 79.3L44.34, 79.5L44.01, 79.41L43.7, 79.1L41.28, 76.03L39.08, 72.85L34.9, 66.3L33.11, 62.94L31.7, 59.5L30.97, 56.84L30.4, 54.1L29.7, 50.4L29.66, 49.07L29.7, 47.9"/><path stroke="black" fill="none" stroke-width="1" d="M46.3, 69.8L46.2, 69.9L46, 70.55L46.19, 71.05L47, 71.9L48.6, 73.7L48.89, 74.01L48.95, 74.19L48.8, 74.4L48.29, 74.63L47.7, 74.4L45.94, 72.73L44.4, 70.9L42.44, 68.46L40.7, 65.8L38, 60.7L36.22, 56.63L34.9, 52.4L33.4, 46.3L33.35, 45.9L33.47, 45.61L34, 45.3L34.51, 45.43L34.8, 46L35.54, 49.09L36.5, 52.1L37.14, 54.02L37.96, 55.87L39.8, 59.5L40.31, 60.6L40.9, 61.7L42.2, 64L43.35, 65.8L44.5, 67.6L46.1, 69.3L46.3, 69.8"/><path stroke="black" fill="none" stroke-width="1" d="M48.1, 66.7L47.35, 66.52L46.72, 66.17L45.8, 65.2L43.68, 62.47L41.7, 59.6L40.92, 58.4L40.3, 57.2L39.2, 54.4L39.25, 53.97L39.6, 53.7L40.03, 53.65L40.3, 53.9L40.6, 54.5L40.9, 55.68L41.43, 56.7L42.7, 58.6L45.25, 62.26L48.1, 65.7L48.36, 66.02L48.4, 66.5L48.36, 66.71L48.1, 66.7"/></svg>